<svg width="858" height="1006" viewBox="0 0 858 1006" fill="none" xmlns="http://www.w3.org/2000/svg">
<path d="M278.381 745.816C278.893 746.776 279.149 747.608 279.149 748.312C279.213 748.952 279.021 749.56 278.573 750.136C278.125 750.648 277.421 751.128 276.461 751.576C274.925 752.28 273.709 752.44 272.812 752.056C271.981 751.672 271.213 750.744 270.509 749.272L246.509 698.2L222.701 749.176C221.997 750.648 221.197 751.576 220.301 751.96C219.469 752.344 218.253 752.184 216.653 751.48C215.693 751.096 214.989 750.616 214.541 750.04C214.157 749.464 213.997 748.76 214.061 747.928C214.189 747.096 214.509 746.136 215.021 745.048L242.573 687.544C242.957 686.776 243.501 686.168 244.205 685.72C244.973 685.208 245.773 684.952 246.605 684.952C247.181 684.952 247.725 685.048 248.237 685.24C248.749 685.432 249.197 685.72 249.581 686.104C249.965 686.488 250.285 687 250.541 687.64L278.381 745.816ZM228.461 732.856L231.725 725.464H261.485L264.653 732.856H228.461ZM304.886 752.056C302.07 752.056 299.446 751.544 297.014 750.52C294.646 749.496 292.566 748.056 290.774 746.2C288.982 744.344 287.574 742.104 286.55 739.48C285.59 736.856 285.11 733.88 285.11 730.552V709.72C285.11 708.824 285.206 708.056 285.398 707.416C285.59 706.776 285.974 706.296 286.55 705.976C287.19 705.592 288.118 705.4 289.334 705.4C290.55 705.4 291.446 705.592 292.022 705.976C292.662 706.36 293.078 706.872 293.27 707.512C293.462 708.152 293.558 708.92 293.558 709.816V730.648C293.558 733.272 294.006 735.608 294.902 737.656C295.798 739.64 297.142 741.176 298.934 742.264C300.79 743.352 303.03 743.896 305.654 743.896C308.342 743.896 310.646 743.352 312.566 742.264C314.55 741.176 316.054 739.64 317.078 737.656C318.166 735.608 318.71 733.272 318.71 730.648V709.72C318.71 708.824 318.806 708.056 318.998 707.416C319.19 706.776 319.574 706.296 320.15 705.976C320.79 705.592 321.718 705.4 322.934 705.4C324.15 705.4 325.046 705.592 325.622 705.976C326.262 706.36 326.646 706.872 326.774 707.512C326.966 708.152 327.062 708.92 327.062 709.816V747.928C327.062 748.696 326.966 749.4 326.774 750.04C326.646 750.616 326.262 751.064 325.622 751.384C325.046 751.704 324.15 751.864 322.934 751.864C322.038 751.864 321.302 751.768 320.726 751.576C320.214 751.384 319.83 751.128 319.574 750.808C319.318 750.488 319.126 750.136 318.998 749.752C318.934 749.304 318.902 748.856 318.902 748.408L319.286 744.28C318.646 745.048 317.878 745.88 316.982 746.776C316.086 747.672 315.03 748.536 313.814 749.368C312.662 750.136 311.35 750.776 309.878 751.288C308.406 751.8 306.742 752.056 304.886 752.056ZM360.467 751.96C357.459 751.96 354.899 751.672 352.787 751.096C350.739 750.52 349.043 749.624 347.699 748.408C346.355 747.192 345.395 745.624 344.819 743.704C344.243 741.72 343.955 739.288 343.955 736.408V693.976C343.955 693.08 344.051 692.312 344.243 691.672C344.435 691.032 344.819 690.552 345.395 690.232C345.971 689.848 346.867 689.656 348.083 689.656C349.299 689.656 350.227 689.848 350.867 690.232C351.507 690.552 351.923 691.032 352.115 691.672C352.307 692.248 352.403 692.984 352.403 693.88V736.408C352.403 738.072 352.531 739.416 352.787 740.44C353.107 741.4 353.555 742.136 354.131 742.648C354.771 743.16 355.603 743.48 356.627 743.608C357.651 743.736 358.899 743.8 360.371 743.8C361.395 743.8 362.227 743.896 362.867 744.088C363.507 744.28 363.987 744.664 364.307 745.24C364.627 745.816 364.787 746.68 364.787 747.832C364.787 749.048 364.595 749.976 364.211 750.616C363.891 751.192 363.379 751.544 362.675 751.672C362.035 751.864 361.299 751.96 360.467 751.96ZM338.963 706.552L348.179 706.648L361.523 706.456C362.419 706.456 363.187 706.552 363.827 706.744C364.467 706.872 364.947 707.256 365.267 707.896C365.651 708.472 365.843 709.368 365.843 710.584C365.843 711.8 365.683 712.728 365.363 713.368C365.043 713.944 364.563 714.328 363.923 714.52C363.283 714.712 362.515 714.808 361.619 714.808L348.467 714.616L338.771 714.712C337.427 714.712 336.499 714.392 335.987 713.752C335.539 713.112 335.315 712.056 335.315 710.584C335.315 709.176 335.603 708.152 336.179 707.512C336.755 706.872 337.683 706.552 338.963 706.552ZM379.377 751.96C378.161 751.96 377.233 751.768 376.593 751.384C376.017 751.064 375.633 750.584 375.441 749.944C375.249 749.304 375.153 748.536 375.153 747.64V709.72C375.153 708.824 375.249 708.056 375.441 707.416C375.633 706.776 376.017 706.296 376.593 705.976C377.233 705.656 378.193 705.496 379.473 705.496C380.689 705.496 381.585 705.688 382.161 706.072C382.737 706.392 383.121 706.872 383.313 707.512C383.505 708.152 383.601 708.952 383.601 709.912V747.736C383.601 748.632 383.505 749.4 383.313 750.04C383.121 750.68 382.705 751.16 382.065 751.48C381.489 751.8 380.593 751.96 379.377 751.96ZM379.377 693.976C377.969 693.976 376.913 693.784 376.209 693.4C375.505 692.952 375.025 692.344 374.769 691.576C374.577 690.808 374.481 689.912 374.481 688.888C374.481 687.864 374.609 687 374.865 686.296C375.121 685.528 375.601 684.984 376.305 684.664C377.009 684.28 378.065 684.088 379.473 684.088C380.817 684.088 381.841 684.28 382.545 684.664C383.249 685.048 383.697 685.624 383.889 686.392C384.145 687.16 384.273 688.056 384.273 689.08C384.273 690.104 384.145 691 383.889 691.768C383.697 692.472 383.249 693.016 382.545 693.4C381.841 693.784 380.785 693.976 379.377 693.976ZM411.598 752.44C410.062 752.44 408.462 752.28 406.798 751.96C405.134 751.64 403.502 751.192 401.902 750.616C400.366 749.976 398.99 749.24 397.774 748.408C396.622 747.576 395.758 746.648 395.182 745.624C394.862 744.984 394.67 744.408 394.606 743.896C394.542 743.32 394.638 742.776 394.894 742.264C395.15 741.752 395.534 741.24 396.046 740.728C396.686 739.96 397.326 739.608 397.966 739.672C398.606 739.672 399.406 740.088 400.366 740.92C401.07 741.368 401.902 741.88 402.862 742.456C403.822 742.968 404.814 743.448 405.838 743.896C406.862 744.28 407.886 744.632 408.91 744.952C409.998 745.208 411.054 745.336 412.078 745.336C415.022 745.336 417.39 744.792 419.182 743.704C420.974 742.552 421.87 741.048 421.87 739.192C421.87 738.104 421.646 737.176 421.198 736.408C420.75 735.64 420.142 735 419.374 734.488C418.606 733.912 417.742 733.432 416.782 733.048C415.822 732.664 414.734 732.312 413.518 731.992C412.366 731.608 411.214 731.256 410.062 730.936C408.334 730.488 406.638 729.976 404.974 729.4C403.31 728.824 401.806 728.088 400.462 727.192C399.118 726.232 398.03 725.048 397.198 723.64C396.366 722.168 395.95 720.312 395.95 718.072C395.95 715.448 396.622 713.176 397.966 711.256C399.31 709.336 401.198 707.864 403.63 706.84C406.062 705.752 408.91 705.208 412.174 705.208C413.582 705.208 414.894 705.304 416.11 705.496C417.326 705.688 418.478 706.008 419.566 706.456C420.718 706.84 421.806 707.32 422.83 707.896C423.854 708.408 424.846 709.048 425.806 709.816C426.958 710.584 427.566 711.416 427.63 712.312C427.694 713.208 427.342 714.136 426.574 715.096C425.998 715.928 425.358 716.472 424.654 716.728C423.95 716.92 423.246 716.728 422.542 716.152C421.518 715.384 420.43 714.712 419.278 714.136C418.126 713.56 416.942 713.08 415.726 712.696C414.51 712.312 413.262 712.12 411.982 712.12C410.382 712.12 408.942 712.376 407.662 712.888C406.446 713.336 405.486 714.04 404.782 715C404.142 715.896 403.822 716.92 403.822 718.072C403.822 719.096 404.078 719.928 404.59 720.568C405.166 721.208 405.87 721.752 406.702 722.2C407.598 722.648 408.622 723.064 409.774 723.448C410.99 723.768 412.238 724.088 413.518 724.408C415.374 724.856 417.262 725.4 419.182 726.04C421.166 726.616 422.926 727.416 424.462 728.44C426.062 729.4 427.342 730.712 428.302 732.376C429.326 733.976 429.838 736.12 429.838 738.808C429.838 743.032 428.174 746.36 424.846 748.792C421.518 751.224 417.102 752.44 411.598 752.44ZM444.332 751.96C443.116 751.96 442.22 751.768 441.644 751.384C441.068 751 440.684 750.488 440.492 749.848C440.3 749.208 440.204 748.44 440.204 747.544V709.528C440.204 708.632 440.3 707.896 440.492 707.32C440.684 706.744 441.068 706.296 441.644 705.976C442.284 705.656 443.212 705.496 444.428 705.496C445.836 705.496 446.828 705.784 447.404 706.36C448.044 706.872 448.364 707.8 448.364 709.144L447.98 713.272C448.428 712.312 449.1 711.352 449.996 710.392C450.892 709.432 451.948 708.568 453.164 707.8C454.444 707.032 455.788 706.424 457.196 705.976C458.604 705.528 460.044 705.304 461.516 705.304C463.756 705.304 465.74 705.72 467.468 706.552C469.26 707.32 470.86 708.44 472.268 709.912C473.676 711.384 474.86 713.208 475.82 715.384C477.1 713.272 478.444 711.48 479.852 710.008C481.324 708.472 482.988 707.32 484.844 706.552C486.7 705.72 488.78 705.304 491.084 705.304C494.732 705.304 497.772 706.232 500.204 708.088C502.7 709.88 504.556 712.44 505.772 715.768C507.052 719.032 507.692 722.968 507.692 727.576V747.64C507.692 748.536 507.596 749.304 507.404 749.944C507.276 750.584 506.892 751.064 506.252 751.384C505.676 751.768 504.748 751.96 503.468 751.96C502.252 751.96 501.324 751.768 500.684 751.384C500.108 751 499.724 750.488 499.532 749.848C499.34 749.208 499.244 748.44 499.244 747.544V727.48C499.244 724.6 498.892 722.136 498.188 720.088C497.548 717.976 496.524 716.344 495.116 715.192C493.772 714.04 492.012 713.464 489.836 713.464C487.532 713.464 485.484 714.04 483.692 715.192C481.964 716.28 480.62 717.88 479.66 719.992C478.7 722.104 478.22 724.6 478.22 727.48V747.736C478.22 748.696 478.028 749.528 477.644 750.232C477.26 750.936 476.684 751.416 475.916 751.672C475.148 751.992 474.22 752.056 473.132 751.864C472.108 751.736 471.34 751.48 470.828 751.096C470.316 750.712 469.996 750.232 469.868 749.656C469.74 749.016 469.676 748.312 469.676 747.544V727.48C469.676 724.6 469.324 722.136 468.62 720.088C467.98 717.976 466.956 716.344 465.548 715.192C464.204 714.04 462.444 713.464 460.268 713.464C457.964 713.464 455.916 714.072 454.124 715.288C452.396 716.44 451.052 718.072 450.092 720.184C449.132 722.296 448.652 724.728 448.652 727.48V747.64C448.652 748.536 448.556 749.304 448.364 749.944C448.172 750.584 447.756 751.064 447.116 751.384C446.54 751.768 445.612 751.96 444.332 751.96ZM540.541 752.536C537.405 752.536 534.397 751.928 531.517 750.712C528.701 749.496 526.173 747.832 523.933 745.72C521.693 743.544 519.933 741.016 518.653 738.136C517.373 735.256 516.733 732.12 516.733 728.728C516.733 725.4 517.341 722.328 518.557 719.512C519.773 716.632 521.469 714.104 523.645 711.928C525.821 709.752 528.317 708.056 531.133 706.84C534.013 705.56 537.085 704.92 540.349 704.92C544.765 704.92 548.733 705.976 552.253 708.088C555.837 710.136 558.685 712.952 560.797 716.536C562.909 720.12 563.965 724.152 563.965 728.632C563.965 732.152 563.325 735.384 562.045 738.328C560.765 741.208 559.037 743.704 556.861 745.816C554.685 747.928 552.189 749.592 549.373 750.808C546.557 751.96 543.613 752.536 540.541 752.536ZM540.349 744.184C543.037 744.184 545.533 743.512 547.837 742.168C550.141 740.824 551.997 738.968 553.405 736.6C554.813 734.232 555.517 731.544 555.517 728.536C555.517 725.528 554.845 722.872 553.501 720.568C552.221 718.264 550.429 716.472 548.125 715.192C545.821 713.912 543.197 713.272 540.253 713.272C537.437 713.272 534.877 713.944 532.573 715.288C530.333 716.632 528.509 718.456 527.101 720.76C525.757 723.064 525.085 725.688 525.085 728.632C525.085 731.704 525.789 734.424 527.197 736.792C528.605 739.096 530.461 740.92 532.765 742.264C535.133 743.544 537.661 744.184 540.349 744.184ZM604.976 770.584C603.44 769.944 602.544 769.208 602.288 768.376C602.032 767.544 602.256 766.392 602.96 764.92L628.4 707.8C629.104 706.328 629.84 705.432 630.608 705.112C631.44 704.728 632.592 704.856 634.064 705.496C635.6 706.2 636.464 706.968 636.656 707.8C636.912 708.632 636.72 709.752 636.08 711.16L610.448 768.568C609.808 770.04 609.104 770.904 608.336 771.16C607.568 771.416 606.448 771.224 604.976 770.584ZM614.48 745.816L592.496 711.928C591.664 710.648 591.344 709.592 591.536 708.76C591.728 707.864 592.464 707 593.744 706.168C595.152 705.272 596.272 704.952 597.104 705.208C598 705.4 598.896 706.136 599.792 707.416L618.416 736.696L614.48 745.816ZM81.5711 867.96C80.4831 867.96 79.6191 867.768 78.9791 867.384C78.4031 867 77.9871 866.488 77.7311 865.848C77.5391 865.144 77.4431 864.344 77.4431 863.448V804.984C77.4431 804.152 77.5711 803.448 77.8271 802.872C78.0831 802.296 78.5311 801.848 79.1711 801.528C79.8751 801.144 80.8351 800.952 82.0511 800.952C83.4591 800.952 84.4511 801.08 85.0271 801.336C85.6031 801.592 86.1791 802.04 86.7551 802.68L122.851 853.752V804.984C122.851 804.152 122.947 803.448 123.139 802.872C123.395 802.296 123.843 801.848 124.483 801.528C125.123 801.144 126.051 800.952 127.267 800.952C128.419 800.952 129.283 801.144 129.859 801.528C130.499 801.912 130.915 802.456 131.107 803.16C131.363 803.8 131.491 804.536 131.491 805.368V863.544C131.491 864.376 131.331 865.144 131.011 865.848C130.755 866.488 130.275 867 129.571 867.384C128.931 867.768 128.003 867.96 126.787 867.96C125.763 867.96 124.899 867.832 124.195 867.576C123.555 867.32 122.947 866.84 122.371 866.136L86.0831 815.448V863.544C86.0831 864.376 85.9551 865.144 85.6991 865.848C85.4431 866.488 84.9951 867 84.3551 867.384C83.7151 867.768 82.7871 867.96 81.5711 867.96ZM167.108 868.44C163.268 868.44 159.844 867.8 156.836 866.52C153.828 865.24 151.268 863.512 149.156 861.336C147.108 859.096 145.54 856.536 144.452 853.656C143.364 850.776 142.82 847.672 142.82 844.344C142.82 839.928 143.844 835.992 145.892 832.536C147.94 829.08 150.756 826.36 154.34 824.376C157.988 822.328 162.148 821.304 166.82 821.304C170.02 821.304 172.868 821.816 175.364 822.84C177.924 823.8 180.1 825.112 181.892 826.776C183.684 828.44 185.06 830.296 186.02 832.344C186.98 834.392 187.46 836.44 187.46 838.488C187.46 841.752 186.692 844.056 185.156 845.4C183.62 846.68 181.732 847.32 179.492 847.32H151.748C151.684 850.136 152.42 852.568 153.956 854.616C155.556 856.6 157.54 858.136 159.908 859.224C162.34 860.312 164.772 860.856 167.204 860.856C168.996 860.856 170.532 860.76 171.812 860.568C173.092 860.376 174.212 860.12 175.172 859.8C176.132 859.48 176.964 859.16 177.668 858.84C178.372 858.52 178.98 858.2 179.492 857.88C180.068 857.56 180.612 857.336 181.124 857.208C181.7 857.08 182.244 857.144 182.756 857.4C183.332 857.592 183.78 858.008 184.1 858.648C184.484 859.16 184.74 859.64 184.868 860.088C184.996 860.536 185.06 861.016 185.06 861.528C185.06 862.424 184.292 863.416 182.756 864.504C181.22 865.592 179.076 866.52 176.324 867.288C173.636 868.056 170.564 868.44 167.108 868.44ZM151.748 841.656H175.844C177.06 841.656 177.956 841.496 178.532 841.176C179.172 840.856 179.492 839.992 179.492 838.584C179.492 836.792 178.948 835.192 177.86 833.784C176.772 832.312 175.268 831.128 173.348 830.232C171.492 829.336 169.348 828.888 166.916 828.888C164.1 828.888 161.508 829.464 159.14 830.616C156.836 831.704 155.012 833.208 153.668 835.128C152.324 837.048 151.684 839.224 151.748 841.656ZM215.496 868.056C212.68 868.056 210.056 867.544 207.624 866.52C205.256 865.496 203.176 864.056 201.384 862.2C199.592 860.344 198.184 858.104 197.16 855.48C196.2 852.856 195.72 849.88 195.72 846.552V825.72C195.72 824.824 195.816 824.056 196.008 823.416C196.2 822.776 196.584 822.296 197.16 821.976C197.8 821.592 198.728 821.4 199.944 821.4C201.16 821.4 202.056 821.592 202.632 821.976C203.272 822.36 203.688 822.872 203.88 823.512C204.072 824.152 204.168 824.92 204.168 825.816V846.648C204.168 849.272 204.616 851.608 205.512 853.656C206.408 855.64 207.752 857.176 209.544 858.264C211.4 859.352 213.64 859.896 216.264 859.896C218.952 859.896 221.256 859.352 223.176 858.264C225.16 857.176 226.664 855.64 227.688 853.656C228.776 851.608 229.32 849.272 229.32 846.648V825.72C229.32 824.824 229.416 824.056 229.608 823.416C229.8 822.776 230.184 822.296 230.76 821.976C231.4 821.592 232.328 821.4 233.544 821.4C234.76 821.4 235.656 821.592 236.232 821.976C236.872 822.36 237.256 822.872 237.384 823.512C237.576 824.152 237.672 824.92 237.672 825.816V863.928C237.672 864.696 237.576 865.4 237.384 866.04C237.256 866.616 236.872 867.064 236.232 867.384C235.656 867.704 234.76 867.864 233.544 867.864C232.648 867.864 231.912 867.768 231.336 867.576C230.824 867.384 230.44 867.128 230.184 866.808C229.928 866.488 229.736 866.136 229.608 865.752C229.544 865.304 229.512 864.856 229.512 864.408L229.896 860.28C229.256 861.048 228.488 861.88 227.592 862.776C226.696 863.672 225.64 864.536 224.424 865.368C223.272 866.136 221.96 866.776 220.488 867.288C219.016 867.8 217.352 868.056 215.496 868.056ZM253.413 867.96C252.197 867.96 251.269 867.768 250.629 867.384C250.053 867.064 249.669 866.584 249.477 865.944C249.349 865.24 249.285 864.44 249.285 863.544V825.72C249.285 824.76 249.381 823.96 249.573 823.32C249.765 822.68 250.149 822.232 250.725 821.976C251.301 821.656 252.229 821.496 253.509 821.496C254.661 821.496 255.525 821.656 256.101 821.976C256.741 822.232 257.157 822.648 257.349 823.224C257.605 823.736 257.733 824.344 257.733 825.048L257.349 827.928C257.797 827.096 258.309 826.264 258.885 825.432C259.525 824.6 260.293 823.864 261.189 823.224C262.149 822.52 263.269 821.944 264.549 821.496C265.893 821.048 267.525 820.824 269.445 820.824C270.405 820.824 271.301 820.92 272.133 821.112C273.029 821.24 273.861 821.464 274.629 821.784C275.461 822.104 276.165 822.488 276.741 822.936C277.317 823.32 277.765 823.768 278.085 824.28C278.469 824.728 278.661 825.272 278.661 825.912C278.661 827.32 278.213 828.536 277.317 829.56C276.421 830.52 275.493 831 274.533 831C273.701 831 273.093 830.904 272.709 830.712C272.325 830.456 271.941 830.2 271.557 829.944C271.237 829.688 270.757 829.464 270.117 829.272C269.477 829.016 268.453 828.888 267.045 828.888C266.085 828.888 265.061 829.08 263.973 829.464C262.949 829.848 261.957 830.424 260.997 831.192C260.037 831.896 259.237 832.824 258.597 833.976C258.021 835.128 257.733 836.472 257.733 838.008V863.736C257.733 864.632 257.637 865.4 257.445 866.04C257.253 866.68 256.837 867.16 256.197 867.48C255.621 867.8 254.693 867.96 253.413 867.96ZM307.806 868.536C304.67 868.536 301.662 867.928 298.782 866.712C295.966 865.496 293.438 863.832 291.198 861.72C288.958 859.544 287.198 857.016 285.918 854.136C284.638 851.256 283.998 848.12 283.998 844.728C283.998 841.4 284.606 838.328 285.822 835.512C287.038 832.632 288.734 830.104 290.91 827.928C293.086 825.752 295.582 824.056 298.398 822.84C301.278 821.56 304.35 820.92 307.614 820.92C312.03 820.92 315.998 821.976 319.518 824.088C323.102 826.136 325.95 828.952 328.062 832.536C330.174 836.12 331.23 840.152 331.23 844.632C331.23 848.152 330.59 851.384 329.31 854.328C328.03 857.208 326.302 859.704 324.126 861.816C321.95 863.928 319.454 865.592 316.638 866.808C313.822 867.96 310.878 868.536 307.806 868.536ZM307.614 860.184C310.302 860.184 312.798 859.512 315.102 858.168C317.406 856.824 319.262 854.968 320.67 852.6C322.078 850.232 322.782 847.544 322.782 844.536C322.782 841.528 322.11 838.872 320.766 836.568C319.486 834.264 317.694 832.472 315.39 831.192C313.086 829.912 310.462 829.272 307.518 829.272C304.702 829.272 302.142 829.944 299.838 831.288C297.598 832.632 295.774 834.456 294.366 836.76C293.022 839.064 292.35 841.688 292.35 844.632C292.35 847.704 293.054 850.424 294.462 852.792C295.87 855.096 297.726 856.92 300.03 858.264C302.398 859.544 304.926 860.184 307.614 860.184ZM360.565 867.96C357.685 867.96 354.933 867.384 352.309 866.232C349.685 865.08 347.381 863.448 345.397 861.336C343.477 859.224 341.941 856.76 340.789 853.944C339.701 851.064 339.157 847.928 339.157 844.536C339.157 841.208 339.701 838.136 340.789 835.32C341.941 832.504 343.477 830.072 345.397 828.024C347.381 825.912 349.685 824.28 352.309 823.128C354.933 821.976 357.685 821.4 360.565 821.4C363.701 821.4 366.517 821.976 369.013 823.128C371.573 824.28 373.749 825.912 375.541 828.024C377.397 830.072 378.805 832.536 379.765 835.416C380.725 838.232 381.205 841.304 381.205 844.632C381.269 848.024 380.789 851.128 379.765 853.944C378.805 856.76 377.429 859.224 375.637 861.336C373.845 863.448 371.669 865.08 369.109 866.232C366.613 867.384 363.765 867.96 360.565 867.96ZM361.813 859.8C364.501 859.8 366.901 859.16 369.013 857.88C371.189 856.6 372.885 854.84 374.101 852.6C375.381 850.296 376.021 847.672 376.021 844.728C376.021 841.72 375.381 839.096 374.101 836.856C372.885 834.552 371.189 832.76 369.013 831.48C366.901 830.2 364.501 829.56 361.813 829.56C359.125 829.56 356.693 830.2 354.517 831.48C352.341 832.76 350.613 834.552 349.333 836.856C348.117 839.096 347.509 841.72 347.509 844.728C347.509 847.672 348.117 850.296 349.333 852.6C350.613 854.84 352.341 856.6 354.517 857.88C356.757 859.16 359.189 859.8 361.813 859.8ZM380.629 867.96C379.221 867.96 378.197 867.704 377.557 867.192C376.917 866.68 376.533 865.816 376.405 864.6V804.504C376.405 803.544 376.469 802.744 376.597 802.104C376.789 801.464 377.173 800.984 377.749 800.664C378.389 800.28 379.317 800.088 380.533 800.088C381.749 800.088 382.645 800.28 383.221 800.664C383.861 800.984 384.277 801.464 384.469 802.104C384.661 802.744 384.757 803.512 384.757 804.408V863.544C384.757 864.44 384.661 865.24 384.469 865.944C384.277 866.584 383.893 867.064 383.317 867.384C382.741 867.768 381.845 867.96 380.629 867.96ZM401.455 867.96C400.239 867.96 399.311 867.768 398.671 867.384C398.095 867.064 397.711 866.584 397.519 865.944C397.327 865.304 397.231 864.536 397.231 863.64V825.72C397.231 824.824 397.327 824.056 397.519 823.416C397.711 822.776 398.095 822.296 398.671 821.976C399.311 821.656 400.271 821.496 401.551 821.496C402.767 821.496 403.663 821.688 404.239 822.072C404.815 822.392 405.199 822.872 405.391 823.512C405.583 824.152 405.679 824.952 405.679 825.912V863.736C405.679 864.632 405.583 865.4 405.391 866.04C405.199 866.68 404.783 867.16 404.143 867.48C403.567 867.8 402.671 867.96 401.455 867.96ZM401.455 809.976C400.047 809.976 398.991 809.784 398.287 809.4C397.583 808.952 397.103 808.344 396.847 807.576C396.655 806.808 396.559 805.912 396.559 804.888C396.559 803.864 396.687 803 396.943 802.296C397.199 801.528 397.679 800.984 398.383 800.664C399.087 800.28 400.143 800.088 401.551 800.088C402.895 800.088 403.919 800.28 404.623 800.664C405.327 801.048 405.775 801.624 405.967 802.392C406.223 803.16 406.351 804.056 406.351 805.08C406.351 806.104 406.223 807 405.967 807.768C405.775 808.472 405.327 809.016 404.623 809.4C403.919 809.784 402.863 809.976 401.455 809.976ZM437.9 868.152C436.812 868.152 435.916 867.992 435.212 867.672C434.572 867.352 434.028 866.776 433.58 865.944L415.82 827.256C415.116 825.72 414.956 824.568 415.34 823.8C415.724 822.968 416.62 822.2 418.028 821.496C419.308 820.856 420.396 820.664 421.292 820.92C422.188 821.112 422.956 821.944 423.596 823.416L437.9 857.496L451.916 824.376C452.62 822.904 453.388 821.848 454.22 821.208C455.052 820.568 456.364 820.696 458.156 821.592C459.884 822.424 460.748 823.384 460.748 824.472C460.748 825.496 460.46 826.616 459.884 827.832L442.22 865.848C441.9 866.616 441.388 867.192 440.684 867.576C439.98 867.96 439.052 868.152 437.9 868.152ZM488.764 868.44C484.924 868.44 481.5 867.8 478.492 866.52C475.484 865.24 472.924 863.512 470.812 861.336C468.764 859.096 467.196 856.536 466.108 853.656C465.02 850.776 464.476 847.672 464.476 844.344C464.476 839.928 465.5 835.992 467.548 832.536C469.596 829.08 472.412 826.36 475.996 824.376C479.644 822.328 483.804 821.304 488.476 821.304C491.676 821.304 494.524 821.816 497.02 822.84C499.58 823.8 501.756 825.112 503.548 826.776C505.34 828.44 506.716 830.296 507.676 832.344C508.636 834.392 509.116 836.44 509.116 838.488C509.116 841.752 508.348 844.056 506.812 845.4C505.276 846.68 503.388 847.32 501.148 847.32H473.404C473.34 850.136 474.076 852.568 475.612 854.616C477.212 856.6 479.196 858.136 481.564 859.224C483.996 860.312 486.428 860.856 488.86 860.856C490.652 860.856 492.188 860.76 493.468 860.568C494.748 860.376 495.868 860.12 496.828 859.8C497.788 859.48 498.62 859.16 499.324 858.84C500.028 858.52 500.636 858.2 501.148 857.88C501.724 857.56 502.268 857.336 502.78 857.208C503.356 857.08 503.9 857.144 504.412 857.4C504.988 857.592 505.436 858.008 505.756 858.648C506.14 859.16 506.396 859.64 506.524 860.088C506.652 860.536 506.716 861.016 506.716 861.528C506.716 862.424 505.948 863.416 504.412 864.504C502.876 865.592 500.732 866.52 497.98 867.288C495.292 868.056 492.22 868.44 488.764 868.44ZM473.404 841.656H497.5C498.716 841.656 499.612 841.496 500.188 841.176C500.828 840.856 501.148 839.992 501.148 838.584C501.148 836.792 500.604 835.192 499.516 833.784C498.428 832.312 496.924 831.128 495.004 830.232C493.148 829.336 491.004 828.888 488.572 828.888C485.756 828.888 483.164 829.464 480.796 830.616C478.492 831.704 476.668 833.208 475.324 835.128C473.98 837.048 473.34 839.224 473.404 841.656ZM522.944 867.96C521.728 867.96 520.8 867.768 520.16 867.384C519.584 867.064 519.2 866.584 519.008 865.944C518.88 865.24 518.816 864.44 518.816 863.544V825.72C518.816 824.76 518.912 823.96 519.104 823.32C519.296 822.68 519.68 822.232 520.256 821.976C520.832 821.656 521.76 821.496 523.04 821.496C524.192 821.496 525.056 821.656 525.632 821.976C526.272 822.232 526.688 822.648 526.88 823.224C527.136 823.736 527.264 824.344 527.264 825.048L526.88 827.928C527.328 827.096 527.84 826.264 528.416 825.432C529.056 824.6 529.824 823.864 530.72 823.224C531.68 822.52 532.8 821.944 534.08 821.496C535.424 821.048 537.056 820.824 538.976 820.824C539.936 820.824 540.832 820.92 541.664 821.112C542.56 821.24 543.392 821.464 544.16 821.784C544.992 822.104 545.696 822.488 546.272 822.936C546.848 823.32 547.296 823.768 547.616 824.28C548 824.728 548.192 825.272 548.192 825.912C548.192 827.32 547.744 828.536 546.848 829.56C545.952 830.52 545.024 831 544.064 831C543.232 831 542.624 830.904 542.24 830.712C541.856 830.456 541.472 830.2 541.088 829.944C540.768 829.688 540.288 829.464 539.648 829.272C539.008 829.016 537.984 828.888 536.576 828.888C535.616 828.888 534.592 829.08 533.504 829.464C532.48 829.848 531.488 830.424 530.528 831.192C529.568 831.896 528.768 832.824 528.128 833.976C527.552 835.128 527.264 836.472 527.264 838.008V863.736C527.264 864.632 527.168 865.4 526.976 866.04C526.784 866.68 526.368 867.16 525.728 867.48C525.152 867.8 524.224 867.96 522.944 867.96ZM570.551 868.44C569.015 868.44 567.415 868.28 565.751 867.96C564.087 867.64 562.455 867.192 560.855 866.616C559.319 865.976 557.943 865.24 556.727 864.408C555.575 863.576 554.711 862.648 554.135 861.624C553.815 860.984 553.623 860.408 553.559 859.896C553.495 859.32 553.591 858.776 553.847 858.264C554.103 857.752 554.487 857.24 554.999 856.728C555.639 855.96 556.279 855.608 556.919 855.672C557.559 855.672 558.359 856.088 559.319 856.92C560.023 857.368 560.855 857.88 561.815 858.456C562.775 858.968 563.767 859.448 564.791 859.896C565.815 860.28 566.839 860.632 567.863 860.952C568.951 861.208 570.007 861.336 571.031 861.336C573.975 861.336 576.343 860.792 578.135 859.704C579.927 858.552 580.823 857.048 580.823 855.192C580.823 854.104 580.599 853.176 580.151 852.408C579.703 851.64 579.095 851 578.327 850.488C577.559 849.912 576.695 849.432 575.735 849.048C574.775 848.664 573.687 848.312 572.471 847.992C571.319 847.608 570.167 847.256 569.015 846.936C567.287 846.488 565.591 845.976 563.927 845.4C562.263 844.824 560.759 844.088 559.415 843.192C558.071 842.232 556.983 841.048 556.151 839.64C555.319 838.168 554.903 836.312 554.903 834.072C554.903 831.448 555.575 829.176 556.919 827.256C558.263 825.336 560.151 823.864 562.583 822.84C565.015 821.752 567.863 821.208 571.127 821.208C572.535 821.208 573.847 821.304 575.063 821.496C576.279 821.688 577.431 822.008 578.519 822.456C579.671 822.84 580.759 823.32 581.783 823.896C582.807 824.408 583.799 825.048 584.759 825.816C585.911 826.584 586.519 827.416 586.583 828.312C586.647 829.208 586.295 830.136 585.527 831.096C584.951 831.928 584.311 832.472 583.607 832.728C582.903 832.92 582.199 832.728 581.495 832.152C580.471 831.384 579.383 830.712 578.231 830.136C577.079 829.56 575.895 829.08 574.679 828.696C573.463 828.312 572.215 828.12 570.935 828.12C569.335 828.12 567.895 828.376 566.615 828.888C565.399 829.336 564.439 830.04 563.735 831C563.095 831.896 562.775 832.92 562.775 834.072C562.775 835.096 563.031 835.928 563.543 836.568C564.119 837.208 564.823 837.752 565.655 838.2C566.551 838.648 567.575 839.064 568.727 839.448C569.943 839.768 571.191 840.088 572.471 840.408C574.327 840.856 576.215 841.4 578.135 842.04C580.119 842.616 581.879 843.416 583.415 844.44C585.015 845.4 586.295 846.712 587.255 848.376C588.279 849.976 588.791 852.12 588.791 854.808C588.791 859.032 587.127 862.36 583.799 864.792C580.471 867.224 576.055 868.44 570.551 868.44ZM603.861 867.96C602.645 867.96 601.717 867.768 601.077 867.384C600.501 867.064 600.117 866.584 599.925 865.944C599.733 865.304 599.637 864.536 599.637 863.64V825.72C599.637 824.824 599.733 824.056 599.925 823.416C600.117 822.776 600.501 822.296 601.077 821.976C601.717 821.656 602.677 821.496 603.957 821.496C605.173 821.496 606.069 821.688 606.645 822.072C607.221 822.392 607.605 822.872 607.797 823.512C607.989 824.152 608.085 824.952 608.085 825.912V863.736C608.085 864.632 607.989 865.4 607.797 866.04C607.605 866.68 607.189 867.16 606.549 867.48C605.973 867.8 605.077 867.96 603.861 867.96ZM603.861 809.976C602.453 809.976 601.397 809.784 600.693 809.4C599.989 808.952 599.509 808.344 599.253 807.576C599.061 806.808 598.965 805.912 598.965 804.888C598.965 803.864 599.093 803 599.349 802.296C599.605 801.528 600.085 800.984 600.789 800.664C601.493 800.28 602.549 800.088 603.957 800.088C605.301 800.088 606.325 800.28 607.029 800.664C607.733 801.048 608.181 801.624 608.373 802.392C608.629 803.16 608.757 804.056 608.757 805.08C608.757 806.104 608.629 807 608.373 807.768C608.181 808.472 607.733 809.016 607.029 809.4C606.325 809.784 605.269 809.976 603.861 809.976ZM640.69 867.96C637.81 867.96 635.058 867.384 632.434 866.232C629.81 865.08 627.506 863.448 625.522 861.336C623.602 859.224 622.066 856.76 620.914 853.944C619.826 851.064 619.282 847.928 619.282 844.536C619.282 841.208 619.826 838.136 620.914 835.32C622.066 832.504 623.602 830.072 625.522 828.024C627.506 825.912 629.81 824.28 632.434 823.128C635.058 821.976 637.81 821.4 640.69 821.4C643.826 821.4 646.642 821.976 649.138 823.128C651.698 824.28 653.874 825.912 655.666 828.024C657.522 830.072 658.93 832.536 659.89 835.416C660.85 838.232 661.33 841.304 661.33 844.632C661.394 848.024 660.914 851.128 659.89 853.944C658.93 856.76 657.554 859.224 655.762 861.336C653.97 863.448 651.794 865.08 649.234 866.232C646.738 867.384 643.89 867.96 640.69 867.96ZM641.938 859.8C644.626 859.8 647.026 859.16 649.138 857.88C651.314 856.6 653.01 854.84 654.226 852.6C655.506 850.296 656.146 847.672 656.146 844.728C656.146 841.72 655.506 839.096 654.226 836.856C653.01 834.552 651.314 832.76 649.138 831.48C647.026 830.2 644.626 829.56 641.938 829.56C639.25 829.56 636.818 830.2 634.642 831.48C632.466 832.76 630.738 834.552 629.458 836.856C628.242 839.096 627.634 841.72 627.634 844.728C627.634 847.672 628.242 850.296 629.458 852.6C630.738 854.84 632.466 856.6 634.642 857.88C636.882 859.16 639.314 859.8 641.938 859.8ZM660.754 867.96C659.346 867.96 658.322 867.704 657.682 867.192C657.042 866.68 656.658 865.816 656.53 864.6V804.504C656.53 803.544 656.594 802.744 656.722 802.104C656.914 801.464 657.298 800.984 657.874 800.664C658.514 800.28 659.442 800.088 660.658 800.088C661.874 800.088 662.77 800.28 663.346 800.664C663.986 800.984 664.402 801.464 664.594 802.104C664.786 802.744 664.882 803.512 664.882 804.408V863.544C664.882 864.44 664.786 865.24 664.594 865.944C664.402 866.584 664.018 867.064 663.442 867.384C662.866 867.768 661.97 867.96 660.754 867.96ZM715.022 867.864C713.614 867.864 712.59 867.576 711.95 867C711.374 866.424 711.022 865.528 710.894 864.312L711.278 859.512C710.638 860.536 709.646 861.72 708.302 863.064C706.958 864.344 705.198 865.496 703.022 866.52C700.846 867.48 698.19 867.96 695.054 867.96C691.982 867.96 689.102 867.352 686.414 866.136C683.79 864.92 681.454 863.224 679.406 861.048C677.422 858.872 675.854 856.376 674.702 853.56C673.614 850.744 673.07 847.736 673.07 844.536C673.07 841.4 673.614 838.456 674.702 835.704C675.854 832.888 677.454 830.424 679.502 828.312C681.55 826.2 683.886 824.536 686.51 823.32C689.198 822.104 692.046 821.496 695.054 821.496C697.87 821.496 700.27 821.88 702.254 822.648C704.238 823.352 705.934 824.312 707.342 825.528C708.814 826.68 710.094 827.992 711.182 829.464L710.99 825.432C710.926 824.024 711.214 823.032 711.854 822.456C712.558 821.816 713.646 821.496 715.118 821.496C716.334 821.496 717.198 821.688 717.71 822.072C718.286 822.456 718.67 823 718.862 823.704C719.054 824.408 719.15 825.272 719.15 826.296V863.352C719.15 864.248 719.054 865.048 718.862 865.752C718.67 866.456 718.286 866.968 717.71 867.288C717.134 867.672 716.238 867.864 715.022 867.864ZM696.494 859.896C699.054 859.896 701.39 859.224 703.502 857.88C705.678 856.536 707.374 854.744 708.59 852.504C709.87 850.2 710.51 847.576 710.51 844.632C710.51 841.624 709.838 839 708.494 836.76C707.214 834.456 705.486 832.664 703.31 831.384C701.198 830.04 698.862 829.368 696.302 829.368C693.294 829.368 690.67 830.072 688.43 831.48C686.254 832.824 684.526 834.648 683.246 836.952C681.966 839.256 681.326 841.88 681.326 844.824C681.326 847.704 681.966 850.296 683.246 852.6C684.526 854.84 686.286 856.632 688.526 857.976C690.83 859.256 693.486 859.896 696.494 859.896ZM750.659 867.96C747.779 867.96 745.027 867.384 742.403 866.232C739.779 865.08 737.475 863.448 735.491 861.336C733.571 859.224 732.035 856.76 730.883 853.944C729.795 851.064 729.251 847.928 729.251 844.536C729.251 841.208 729.795 838.136 730.883 835.32C732.035 832.504 733.571 830.072 735.491 828.024C737.475 825.912 739.779 824.28 742.403 823.128C745.027 821.976 747.779 821.4 750.659 821.4C753.795 821.4 756.611 821.976 759.107 823.128C761.667 824.28 763.843 825.912 765.635 828.024C767.491 830.072 768.899 832.536 769.859 835.416C770.819 838.232 771.299 841.304 771.299 844.632C771.363 848.024 770.883 851.128 769.859 853.944C768.899 856.76 767.523 859.224 765.731 861.336C763.939 863.448 761.763 865.08 759.203 866.232C756.707 867.384 753.859 867.96 750.659 867.96ZM751.907 859.8C754.595 859.8 756.995 859.16 759.107 857.88C761.283 856.6 762.979 854.84 764.195 852.6C765.475 850.296 766.115 847.672 766.115 844.728C766.115 841.72 765.475 839.096 764.195 836.856C762.979 834.552 761.283 832.76 759.107 831.48C756.995 830.2 754.595 829.56 751.907 829.56C749.219 829.56 746.787 830.2 744.611 831.48C742.435 832.76 740.707 834.552 739.427 836.856C738.211 839.096 737.603 841.72 737.603 844.728C737.603 847.672 738.211 850.296 739.427 852.6C740.707 854.84 742.435 856.6 744.611 857.88C746.851 859.16 749.283 859.8 751.907 859.8ZM770.723 867.96C769.315 867.96 768.291 867.704 767.651 867.192C767.011 866.68 766.627 865.816 766.499 864.6V804.504C766.499 803.544 766.563 802.744 766.691 802.104C766.883 801.464 767.267 800.984 767.843 800.664C768.483 800.28 769.411 800.088 770.627 800.088C771.843 800.088 772.739 800.28 773.315 800.664C773.955 800.984 774.371 801.464 774.563 802.104C774.755 802.744 774.851 803.512 774.851 804.408V863.544C774.851 864.44 774.755 865.24 774.563 865.944C774.371 866.584 773.987 867.064 773.411 867.384C772.835 867.768 771.939 867.96 770.723 867.96ZM217.866 983.96C216.586 983.96 215.626 983.768 214.986 983.384C214.41 983.064 214.026 982.584 213.834 981.944C213.642 981.24 213.546 980.44 213.546 979.544V921.272C213.546 919.608 213.866 918.488 214.506 917.912C215.21 917.272 216.426 916.952 218.154 916.952H256.746C257.642 916.952 258.41 917.048 259.05 917.24C259.69 917.432 260.17 917.848 260.49 918.488C260.81 919.128 260.97 920.088 260.97 921.368C260.97 922.648 260.778 923.608 260.394 924.248C260.074 924.824 259.594 925.208 258.954 925.4C258.314 925.592 257.546 925.688 256.65 925.688H222.186V945.56H246.186C247.082 945.56 247.818 945.656 248.394 945.848C249.034 946.04 249.514 946.424 249.834 947C250.154 947.576 250.314 948.472 250.314 949.688C250.314 950.84 250.154 951.704 249.834 952.28C249.514 952.856 249.034 953.24 248.394 953.432C247.754 953.56 246.954 953.624 245.994 953.624H222.186V975.32H256.746C257.642 975.32 258.41 975.416 259.05 975.608C259.69 975.8 260.17 976.216 260.49 976.856C260.81 977.432 260.97 978.36 260.97 979.64C260.97 980.92 260.778 981.88 260.394 982.52C260.074 983.096 259.594 983.48 258.954 983.672C258.314 983.864 257.546 983.96 256.65 983.96H217.866ZM287.567 984.44C286.031 984.44 284.431 984.28 282.767 983.96C281.103 983.64 279.471 983.192 277.871 982.616C276.335 981.976 274.959 981.24 273.743 980.408C272.591 979.576 271.727 978.648 271.151 977.624C270.831 976.984 270.639 976.408 270.575 975.896C270.511 975.32 270.607 974.776 270.863 974.264C271.119 973.752 271.503 973.24 272.015 972.728C272.655 971.96 273.295 971.608 273.935 971.672C274.575 971.672 275.375 972.088 276.335 972.92C277.039 973.368 277.871 973.88 278.831 974.456C279.791 974.968 280.783 975.448 281.807 975.896C282.831 976.28 283.855 976.632 284.879 976.952C285.967 977.208 287.023 977.336 288.047 977.336C290.991 977.336 293.359 976.792 295.151 975.704C296.943 974.552 297.839 973.048 297.839 971.192C297.839 970.104 297.615 969.176 297.167 968.408C296.719 967.64 296.111 967 295.343 966.488C294.575 965.912 293.711 965.432 292.751 965.048C291.791 964.664 290.703 964.312 289.487 963.992C288.335 963.608 287.183 963.256 286.031 962.936C284.303 962.488 282.607 961.976 280.943 961.4C279.279 960.824 277.775 960.088 276.431 959.192C275.087 958.232 273.999 957.048 273.167 955.64C272.335 954.168 271.919 952.312 271.919 950.072C271.919 947.448 272.591 945.176 273.935 943.256C275.279 941.336 277.167 939.864 279.599 938.84C282.031 937.752 284.879 937.208 288.143 937.208C289.551 937.208 290.863 937.304 292.079 937.496C293.295 937.688 294.447 938.008 295.535 938.456C296.687 938.84 297.775 939.32 298.799 939.896C299.823 940.408 300.815 941.048 301.775 941.816C302.927 942.584 303.535 943.416 303.599 944.312C303.663 945.208 303.311 946.136 302.543 947.096C301.967 947.928 301.327 948.472 300.623 948.728C299.919 948.92 299.215 948.728 298.511 948.152C297.487 947.384 296.399 946.712 295.247 946.136C294.095 945.56 292.911 945.08 291.695 944.696C290.479 944.312 289.231 944.12 287.951 944.12C286.351 944.12 284.911 944.376 283.631 944.888C282.415 945.336 281.455 946.04 280.751 947C280.111 947.896 279.791 948.92 279.791 950.072C279.791 951.096 280.047 951.928 280.559 952.568C281.135 953.208 281.839 953.752 282.671 954.2C283.567 954.648 284.591 955.064 285.743 955.448C286.959 955.768 288.207 956.088 289.487 956.408C291.343 956.856 293.231 957.4 295.151 958.04C297.135 958.616 298.895 959.416 300.431 960.44C302.031 961.4 303.311 962.712 304.271 964.376C305.295 965.976 305.807 968.12 305.807 970.808C305.807 975.032 304.143 978.36 300.815 980.792C297.487 983.224 293.071 984.44 287.567 984.44ZM339.693 983.576C336.557 983.576 333.709 983 331.149 981.848C328.589 980.696 326.413 979.096 324.621 977.048C322.829 974.936 321.421 972.472 320.397 969.656C319.437 966.84 318.989 963.736 319.053 960.344C319.053 957.016 319.533 953.944 320.493 951.128C321.453 948.312 322.829 945.88 324.621 943.832C326.477 941.72 328.653 940.12 331.149 939.032C333.709 937.88 336.557 937.304 339.693 937.304C342.637 937.304 345.389 937.88 347.949 939.032C350.573 940.184 352.845 941.816 354.765 943.928C356.749 945.976 358.285 948.44 359.373 951.32C360.525 954.2 361.101 957.304 361.101 960.632C361.101 963.96 360.525 967.032 359.373 969.848C358.285 972.664 356.749 975.096 354.765 977.144C352.845 979.192 350.573 980.792 347.949 981.944C345.389 983.032 342.637 983.576 339.693 983.576ZM319.725 1002.87C318.509 1002.87 317.581 1002.68 316.941 1002.3C316.365 1001.98 315.949 1001.5 315.693 1000.86C315.501 1000.22 315.405 999.448 315.405 998.552V941.816C315.405 940.92 315.501 940.152 315.693 939.512C315.885 938.872 316.269 938.392 316.845 938.072C317.485 937.688 318.413 937.496 319.629 937.496C321.037 937.496 322.061 937.72 322.701 938.168C323.405 938.616 323.821 939.416 323.949 940.568V998.456C324.013 999.352 323.949 1000.12 323.757 1000.76C323.565 1001.46 323.149 1001.98 322.509 1002.3C321.933 1002.68 321.005 1002.87 319.725 1002.87ZM338.445 975.704C341.133 975.704 343.565 975.064 345.741 973.784C347.917 972.44 349.613 970.616 350.829 968.312C352.109 966.008 352.749 963.384 352.749 960.44C352.749 957.432 352.109 954.808 350.829 952.568C349.613 950.328 347.917 948.6 345.741 947.384C343.629 946.104 341.197 945.464 338.445 945.464C335.757 945.464 333.325 946.104 331.149 947.384C329.037 948.664 327.341 950.424 326.061 952.664C324.845 954.904 324.237 957.496 324.237 960.44C324.237 963.384 324.845 966.008 326.061 968.312C327.341 970.616 329.037 972.44 331.149 973.784C333.325 975.064 335.757 975.704 338.445 975.704ZM385.89 983.96C383.842 983.96 381.986 983.768 380.322 983.384C378.722 983.064 377.314 982.52 376.098 981.752C374.882 980.984 373.858 979.992 373.026 978.776C372.258 977.56 371.682 976.088 371.298 974.36C370.978 972.632 370.818 970.616 370.818 968.312V920.312C370.818 919.352 370.882 918.552 371.01 917.912C371.202 917.272 371.618 916.792 372.258 916.472C372.898 916.088 373.794 915.896 374.946 915.896C376.226 915.896 377.154 916.056 377.73 916.376C378.37 916.696 378.786 917.176 378.978 917.816C379.17 918.456 379.266 919.224 379.266 920.12V968.216C379.266 969.496 379.394 970.616 379.65 971.576C379.906 972.472 380.29 973.24 380.802 973.88C381.378 974.52 382.082 974.968 382.914 975.224C383.746 975.48 384.738 975.608 385.89 975.608C386.658 975.608 387.298 975.704 387.81 975.896C388.386 976.088 388.834 976.472 389.154 977.048C389.474 977.624 389.634 978.52 389.634 979.736C389.634 981.016 389.474 981.976 389.154 982.616C388.834 983.192 388.386 983.544 387.81 983.672C387.298 983.864 386.658 983.96 385.89 983.96ZM415.793 984.056C412.977 984.056 410.353 983.544 407.921 982.52C405.553 981.496 403.473 980.056 401.681 978.2C399.889 976.344 398.481 974.104 397.457 971.48C396.497 968.856 396.017 965.88 396.017 962.552V941.72C396.017 940.824 396.113 940.056 396.305 939.416C396.497 938.776 396.881 938.296 397.457 937.976C398.097 937.592 399.025 937.4 400.241 937.4C401.457 937.4 402.353 937.592 402.929 937.976C403.569 938.36 403.985 938.872 404.177 939.512C404.369 940.152 404.465 940.92 404.465 941.816V962.648C404.465 965.272 404.913 967.608 405.809 969.656C406.705 971.64 408.049 973.176 409.841 974.264C411.697 975.352 413.937 975.896 416.561 975.896C419.249 975.896 421.553 975.352 423.473 974.264C425.457 973.176 426.961 971.64 427.985 969.656C429.073 967.608 429.617 965.272 429.617 962.648V941.72C429.617 940.824 429.713 940.056 429.905 939.416C430.097 938.776 430.481 938.296 431.057 937.976C431.697 937.592 432.625 937.4 433.841 937.4C435.057 937.4 435.953 937.592 436.529 937.976C437.169 938.36 437.553 938.872 437.681 939.512C437.873 940.152 437.969 940.92 437.969 941.816V979.928C437.969 980.696 437.873 981.4 437.681 982.04C437.553 982.616 437.169 983.064 436.529 983.384C435.953 983.704 435.057 983.864 433.841 983.864C432.945 983.864 432.209 983.768 431.633 983.576C431.121 983.384 430.737 983.128 430.481 982.808C430.225 982.488 430.033 982.136 429.905 981.752C429.841 981.304 429.809 980.856 429.809 980.408L430.193 976.28C429.553 977.048 428.785 977.88 427.889 978.776C426.993 979.672 425.937 980.536 424.721 981.368C423.569 982.136 422.257 982.776 420.785 983.288C419.313 983.8 417.649 984.056 415.793 984.056ZM469.07 1002.78C466.83 1002.78 464.686 1002.52 462.638 1002.01C460.59 1001.5 458.798 1000.82 457.262 999.992C455.726 999.16 454.51 998.264 453.614 997.304C452.718 996.344 452.27 995.448 452.27 994.616C452.27 993.976 452.366 993.432 452.558 992.984C452.75 992.6 453.038 992.184 453.422 991.736C454.062 991.096 454.574 990.648 454.958 990.392C455.342 990.136 455.854 990.008 456.494 990.008C457.134 990.008 457.774 990.264 458.414 990.776C459.054 991.352 459.822 991.96 460.718 992.6C461.678 993.304 462.83 993.912 464.174 994.424C465.582 995 467.31 995.288 469.358 995.288C471.47 995.288 473.358 994.968 475.022 994.328C476.686 993.688 478.126 992.728 479.342 991.448C480.558 990.168 481.486 988.6 482.126 986.744C482.766 984.952 483.086 982.904 483.086 980.6L482.894 940.664C482.958 939.448 483.31 938.584 483.95 938.072C484.654 937.56 485.742 937.304 487.214 937.304C488.43 937.304 489.294 937.496 489.806 937.88C490.382 938.2 490.734 938.68 490.862 939.32C491.054 939.896 491.15 940.632 491.15 941.528V981.272C491.15 984.664 490.606 987.672 489.518 990.296C488.43 992.984 486.894 995.256 484.91 997.112C482.926 998.968 480.59 1000.38 477.902 1001.34C475.214 1002.3 472.27 1002.78 469.07 1002.78ZM468.781 982.904C465.71 982.904 462.862 982.36 460.238 981.272C457.678 980.12 455.406 978.52 453.422 976.472C451.502 974.424 449.998 972.024 448.91 969.272C447.886 966.52 447.374 963.512 447.374 960.248C447.374 956.984 447.886 953.976 448.91 951.224C449.998 948.472 451.502 946.072 453.422 944.024C455.342 941.976 457.582 940.408 460.142 939.32C462.766 938.168 465.614 937.592 468.686 937.592C471.502 937.592 474.062 938.136 476.366 939.224C478.67 940.312 480.622 941.88 482.222 943.928C483.886 945.912 485.134 948.28 485.966 951.032C486.798 953.784 487.214 956.856 487.214 960.248C487.214 964.856 486.478 968.856 485.006 972.248C483.534 975.64 481.422 978.264 478.67 980.12C475.918 981.976 472.622 982.904 468.781 982.904ZM469.262 975.032C471.822 975.032 474.126 974.392 476.174 973.112C478.222 971.832 479.854 970.072 481.07 967.832C482.286 965.592 482.894 963 482.894 960.056C482.894 957.176 482.286 954.648 481.07 952.472C479.854 950.232 478.19 948.504 476.078 947.288C474.03 946.072 471.694 945.464 469.07 945.464C466.446 945.464 464.11 946.072 462.062 947.288C460.014 948.504 458.414 950.232 457.262 952.472C456.174 954.648 455.63 957.208 455.63 960.152C455.63 963.096 456.206 965.688 457.358 967.928C458.51 970.104 460.11 971.832 462.158 973.112C464.206 974.392 466.574 975.032 469.262 975.032ZM522.199 984.056C519.383 984.056 516.759 983.544 514.327 982.52C511.959 981.496 509.879 980.056 508.087 978.2C506.295 976.344 504.887 974.104 503.863 971.48C502.903 968.856 502.423 965.88 502.423 962.552V941.72C502.423 940.824 502.519 940.056 502.711 939.416C502.903 938.776 503.287 938.296 503.863 937.976C504.503 937.592 505.431 937.4 506.647 937.4C507.863 937.4 508.759 937.592 509.335 937.976C509.975 938.36 510.391 938.872 510.583 939.512C510.775 940.152 510.871 940.92 510.871 941.816V962.648C510.871 965.272 511.319 967.608 512.215 969.656C513.111 971.64 514.455 973.176 516.247 974.264C518.103 975.352 520.343 975.896 522.967 975.896C525.655 975.896 527.959 975.352 529.879 974.264C531.863 973.176 533.367 971.64 534.391 969.656C535.479 967.608 536.023 965.272 536.023 962.648V941.72C536.023 940.824 536.119 940.056 536.311 939.416C536.503 938.776 536.887 938.296 537.463 937.976C538.103 937.592 539.031 937.4 540.247 937.4C541.463 937.4 542.359 937.592 542.935 937.976C543.575 938.36 543.959 938.872 544.087 939.512C544.279 940.152 544.375 940.92 544.375 941.816V979.928C544.375 980.696 544.279 981.4 544.087 982.04C543.959 982.616 543.575 983.064 542.935 983.384C542.359 983.704 541.463 983.864 540.247 983.864C539.351 983.864 538.615 983.768 538.039 983.576C537.527 983.384 537.143 983.128 536.887 982.808C536.631 982.488 536.439 982.136 536.311 981.752C536.247 981.304 536.215 980.856 536.215 980.408L536.599 976.28C535.959 977.048 535.191 977.88 534.295 978.776C533.399 979.672 532.343 980.536 531.127 981.368C529.975 982.136 528.663 982.776 527.191 983.288C525.719 983.8 524.055 984.056 522.199 984.056ZM577.78 984.44C573.94 984.44 570.516 983.8 567.508 982.52C564.5 981.24 561.94 979.512 559.828 977.336C557.78 975.096 556.212 972.536 555.124 969.656C554.036 966.776 553.492 963.672 553.492 960.344C553.492 955.928 554.516 951.992 556.564 948.536C558.612 945.08 561.428 942.36 565.012 940.376C568.66 938.328 572.82 937.304 577.492 937.304C580.692 937.304 583.54 937.816 586.036 938.84C588.596 939.8 590.772 941.112 592.564 942.776C594.356 944.44 595.732 946.296 596.692 948.344C597.652 950.392 598.132 952.44 598.132 954.488C598.132 957.752 597.364 960.056 595.828 961.4C594.292 962.68 592.404 963.32 590.164 963.32H562.42C562.356 966.136 563.092 968.568 564.628 970.616C566.228 972.6 568.212 974.136 570.58 975.224C573.012 976.312 575.444 976.856 577.876 976.856C579.668 976.856 581.204 976.76 582.484 976.568C583.764 976.376 584.884 976.12 585.844 975.8C586.804 975.48 587.636 975.16 588.34 974.84C589.044 974.52 589.652 974.2 590.164 973.88C590.74 973.56 591.284 973.336 591.796 973.208C592.372 973.08 592.916 973.144 593.428 973.4C594.004 973.592 594.452 974.008 594.772 974.648C595.156 975.16 595.412 975.64 595.54 976.088C595.668 976.536 595.732 977.016 595.732 977.528C595.732 978.424 594.964 979.416 593.428 980.504C591.892 981.592 589.748 982.52 586.996 983.288C584.308 984.056 581.236 984.44 577.78 984.44ZM562.42 957.656H586.516C587.732 957.656 588.628 957.496 589.204 957.176C589.844 956.856 590.164 955.992 590.164 954.584C590.164 952.792 589.62 951.192 588.532 949.784C587.444 948.312 585.94 947.128 584.02 946.232C582.164 945.336 580.02 944.888 577.588 944.888C574.772 944.888 572.18 945.464 569.812 946.616C567.508 947.704 565.684 949.208 564.34 951.128C562.996 953.048 562.356 955.224 562.42 957.656ZM623.192 984.44C621.656 984.44 620.056 984.28 618.392 983.96C616.728 983.64 615.096 983.192 613.496 982.616C611.96 981.976 610.584 981.24 609.368 980.408C608.216 979.576 607.352 978.648 606.776 977.624C606.456 976.984 606.264 976.408 606.2 975.896C606.136 975.32 606.232 974.776 606.488 974.264C606.744 973.752 607.128 973.24 607.64 972.728C608.28 971.96 608.92 971.608 609.56 971.672C610.2 971.672 611 972.088 611.96 972.92C612.664 973.368 613.496 973.88 614.456 974.456C615.416 974.968 616.408 975.448 617.432 975.896C618.456 976.28 619.48 976.632 620.504 976.952C621.592 977.208 622.648 977.336 623.672 977.336C626.616 977.336 628.984 976.792 630.776 975.704C632.568 974.552 633.464 973.048 633.464 971.192C633.464 970.104 633.24 969.176 632.792 968.408C632.344 967.64 631.736 967 630.968 966.488C630.2 965.912 629.336 965.432 628.376 965.048C627.416 964.664 626.328 964.312 625.112 963.992C623.96 963.608 622.808 963.256 621.656 962.936C619.928 962.488 618.232 961.976 616.568 961.4C614.904 960.824 613.4 960.088 612.056 959.192C610.712 958.232 609.624 957.048 608.792 955.64C607.96 954.168 607.544 952.312 607.544 950.072C607.544 947.448 608.216 945.176 609.56 943.256C610.904 941.336 612.792 939.864 615.224 938.84C617.656 937.752 620.504 937.208 623.768 937.208C625.176 937.208 626.488 937.304 627.704 937.496C628.92 937.688 630.072 938.008 631.16 938.456C632.312 938.84 633.4 939.32 634.424 939.896C635.448 940.408 636.44 941.048 637.4 941.816C638.552 942.584 639.16 943.416 639.224 944.312C639.288 945.208 638.936 946.136 638.168 947.096C637.592 947.928 636.952 948.472 636.248 948.728C635.544 948.92 634.84 948.728 634.136 948.152C633.112 947.384 632.024 946.712 630.872 946.136C629.72 945.56 628.536 945.08 627.32 944.696C626.104 944.312 624.856 944.12 623.576 944.12C621.976 944.12 620.536 944.376 619.256 944.888C618.04 945.336 617.08 946.04 616.376 947C615.736 947.896 615.416 948.92 615.416 950.072C615.416 951.096 615.672 951.928 616.184 952.568C616.76 953.208 617.464 953.752 618.296 954.2C619.192 954.648 620.216 955.064 621.368 955.448C622.584 955.768 623.832 956.088 625.112 956.408C626.968 956.856 628.856 957.4 630.776 958.04C632.76 958.616 634.52 959.416 636.056 960.44C637.656 961.4 638.936 962.712 639.896 964.376C640.92 965.976 641.432 968.12 641.432 970.808C641.432 975.032 639.768 978.36 636.44 980.792C633.112 983.224 628.696 984.44 623.192 984.44Z" fill="#034AB1"/>
<path d="M305.115 463.509C306.517 500.818 307.078 538.128 307.92 575.438C308.762 602.649 266.683 602.649 266.122 575.438C265.841 564.497 265.561 553.276 265 542.055L222.921 540.372C219.835 554.398 217.311 568.705 214.786 582.731C210.017 609.381 169.622 598.16 174.39 571.51C180.843 535.042 188.136 498.855 203.284 464.631C214.786 439.383 235.264 404.318 262.195 392.816C303.712 375.143 304.273 439.103 305.115 463.509ZM236.386 494.086C235.825 495.769 235.264 497.171 234.703 498.855C244.522 499.135 254.34 499.696 264.158 499.977C263.878 487.634 263.597 475.571 263.036 463.509C262.756 458.74 263.036 453.129 262.756 447.519C259.95 450.885 257.145 454.532 254.62 458.459C247.327 469.4 241.155 481.743 236.386 494.086Z" fill="#034AB1"/>
<path d="M445.693 416.1C449.339 389.45 490.015 400.952 486.088 427.321C478.514 478.937 468.976 530.273 457.755 581.048C454.108 597.88 426.617 602.929 419.323 586.098C410.346 565.619 401.65 545.422 392.673 524.943C387.063 549.349 381.733 573.755 377.245 598.16C372.195 624.81 331.519 613.589 336.569 586.939C344.984 542.616 355.083 498.294 366.865 454.532C371.354 438.542 398.003 432.37 405.297 449.482L430.264 506.709C435.874 476.693 441.204 446.397 445.693 416.1Z" fill="#034AB1"/>
<path d="M617.582 526.907C644.512 528.029 644.512 570.108 617.582 568.986C592.054 567.864 566.526 568.986 541.279 573.194C529.497 574.877 512.666 567.864 514.629 552.715C521.081 501.099 528.655 449.482 537.913 397.866C538.474 394.78 539.596 391.975 540.999 389.731C544.365 384.401 549.975 380.473 557.83 380.473C578.028 379.632 598.506 379.912 618.704 381.315C645.634 383.279 645.634 425.357 618.704 423.394C604.397 422.552 590.371 421.991 576.064 421.991C574.381 432.931 572.417 443.872 570.734 454.532C578.308 454.812 585.602 455.093 592.896 455.934C604.397 457.057 613.935 464.631 613.935 476.974C613.935 487.634 604.397 499.135 592.896 498.013C583.358 496.891 573.82 496.61 564.282 496.61C562.879 507.27 561.196 517.93 559.794 528.59C578.869 526.907 598.225 526.066 617.582 526.907Z" fill="#034AB1"/>
<path d="M106.067 298.2C106.067 314.603 92.7703 327.899 76.3681 327.899C59.9659 327.899 46.6693 314.603 46.6693 298.2C46.6693 281.798 59.9659 268.502 76.3681 268.502C92.7703 268.502 106.067 281.798 106.067 298.2Z" fill="url(#paint0_linear_11_13)"/>
<path d="M215.771 323.657C215.771 346.754 197.047 365.477 173.95 365.477C150.853 365.477 132.129 346.754 132.129 323.657C132.129 300.56 150.853 281.836 173.95 281.836C197.047 281.836 215.771 300.56 215.771 323.657Z" fill="url(#paint1_linear_11_13)"/>
<path d="M313.353 299.11C313.353 319.696 296.664 336.385 276.078 336.385C255.491 336.385 238.803 319.696 238.803 299.11C238.803 278.523 255.491 261.835 276.078 261.835C296.664 261.835 313.353 278.523 313.353 299.11Z" fill="url(#paint2_linear_11_13)"/>
<path d="M392.145 248.5C392.145 266.576 377.492 281.23 359.416 281.23C341.34 281.23 326.687 266.576 326.687 248.5C326.687 230.424 341.34 215.771 359.416 215.771C377.492 215.771 392.145 230.424 392.145 248.5Z" fill="url(#paint3_linear_11_13)"/>
<path d="M463.059 183.042C463.059 199.444 449.762 212.741 433.36 212.741C416.958 212.741 403.661 199.444 403.661 183.042C403.661 166.64 416.958 153.343 433.36 153.343C449.762 153.343 463.059 166.64 463.059 183.042Z" fill="url(#paint4_linear_11_13)"/>
<path d="M527.911 116.977C527.911 133.379 514.615 146.676 498.213 146.676C481.81 146.676 468.514 133.379 468.514 116.977C468.514 100.575 481.81 87.2782 498.213 87.2782C514.615 87.2782 527.911 100.575 527.911 116.977Z" fill="url(#paint5_linear_11_13)"/>
<path d="M620.948 65.7617C620.948 85.6786 604.802 101.825 584.885 101.825C564.968 101.825 548.822 85.6786 548.822 65.7617C548.822 45.8447 564.968 29.6988 584.885 29.6988C604.802 29.6988 620.948 45.8447 620.948 65.7617Z" fill="url(#paint6_linear_11_13)"/>
<path d="M725.5 40.3055C725.5 62.5657 707.454 80.6111 685.194 80.6111C662.934 80.6111 644.888 62.5657 644.888 40.3055C644.888 18.0454 662.934 0 685.194 0C707.454 0 725.5 18.0454 725.5 40.3055Z" fill="url(#paint7_linear_11_13)"/>
<path d="M815.202 67.58C815.202 85.8232 800.413 100.612 782.17 100.612C763.927 100.612 749.137 85.8232 749.137 67.58C749.137 49.3367 763.927 34.5476 782.17 34.5476C800.413 34.5476 815.202 49.3367 815.202 67.58Z" fill="url(#paint8_linear_11_13)"/>
<path d="M98.1878 82.4295C98.1878 95.819 87.3335 106.673 73.9439 106.673C60.5543 106.673 49.7 95.819 49.7 82.4295C49.7 69.0399 60.5543 58.1855 73.9439 58.1855C87.3335 58.1855 98.1878 69.0399 98.1878 82.4295Z" fill="url(#paint9_linear_11_13)"/>
<path d="M149.706 46.0636C149.706 57.11 140.751 66.0648 129.705 66.0648C118.659 66.0648 109.704 57.11 109.704 46.0636C109.704 35.0172 118.659 26.0623 129.705 26.0623C140.751 26.0623 149.706 35.0172 149.706 46.0636Z" fill="url(#paint10_linear_11_13)"/>
<path d="M207.892 35.1538C207.892 45.5307 199.48 53.9429 189.103 53.9429C178.726 53.9429 170.314 45.5307 170.314 35.1538C170.314 24.7769 178.726 16.3647 189.103 16.3647C199.48 16.3647 207.892 24.7769 207.892 35.1538Z" fill="url(#paint11_linear_11_13)"/>
<path d="M261.834 37.2751C261.834 45.811 254.915 52.7307 246.379 52.7307C237.843 52.7307 230.923 45.811 230.923 37.2751C230.923 28.7393 237.843 21.8196 246.379 21.8196C254.915 21.8196 261.834 28.7393 261.834 37.2751Z" fill="url(#paint12_linear_11_13)"/>
<path d="M309.413 57.5794C309.413 65.2784 303.172 71.5197 295.473 71.5197C287.774 71.5197 281.533 65.2784 281.533 57.5794C281.533 49.8804 287.774 43.6392 295.473 43.6392C303.172 43.6392 309.413 49.8804 309.413 57.5794Z" fill="url(#paint13_linear_11_13)"/>
<path d="M350.325 82.7325C350.325 90.2642 344.219 96.3697 336.688 96.3697C329.156 96.3697 323.05 90.2642 323.05 82.7325C323.05 75.2009 329.156 69.0953 336.688 69.0953C344.219 69.0953 350.325 75.2009 350.325 82.7325Z" fill="url(#paint14_linear_11_13)"/>
<path d="M386.388 113.947C386.388 120.976 380.689 126.675 373.66 126.675C366.63 126.675 360.932 120.976 360.932 113.947C360.932 106.917 366.63 101.219 373.66 101.219C380.689 101.219 386.388 106.917 386.388 113.947Z" fill="url(#paint15_linear_11_13)"/>
<path d="M56.9731 141.221C56.9731 155.28 45.576 166.677 31.517 166.677C17.458 166.677 6.06086 155.28 6.06086 141.221C6.06086 127.162 17.458 115.765 31.517 115.765C45.576 115.765 56.9731 127.162 56.9731 141.221Z" fill="url(#paint16_linear_11_13)"/>
<path d="M60.6097 221.226C60.6097 237.963 47.0417 251.531 30.3048 251.531C13.5679 251.531 -0.00012207 237.963 -0.00012207 221.226C-0.00012207 204.489 13.5679 190.921 30.3048 190.921C47.0417 190.921 60.6097 204.489 60.6097 221.226Z" fill="url(#paint17_linear_11_13)"/>
<path d="M857.023 146.979C857.023 163.549 843.591 176.981 827.021 176.981C810.452 176.981 797.019 163.549 797.019 146.979C797.019 130.409 810.452 116.977 827.021 116.977C843.591 116.977 857.023 130.409 857.023 146.979Z" fill="url(#paint18_linear_11_13)"/>
<path d="M852.174 225.772C852.174 239.663 840.913 250.925 827.021 250.925C813.13 250.925 801.868 239.663 801.868 225.772C801.868 211.88 813.13 200.619 827.021 200.619C840.913 200.619 852.174 211.88 852.174 225.772Z" fill="url(#paint19_linear_11_13)"/>
<path d="M807.323 283.351C807.323 296.239 796.876 306.686 783.988 306.686C771.101 306.686 760.653 296.239 760.653 283.351C760.653 270.464 771.101 260.016 783.988 260.016C796.876 260.016 807.323 270.464 807.323 283.351Z" fill="url(#paint20_linear_11_13)"/>
<path d="M748.531 320.626C748.531 331.673 739.577 340.627 728.53 340.627C717.484 340.627 708.529 331.673 708.529 320.626C708.529 309.58 717.484 300.625 728.53 300.625C739.577 300.625 748.531 309.58 748.531 320.626Z" fill="url(#paint21_linear_11_13)"/>
<path d="M689.74 331.536C689.74 342.582 680.785 351.537 669.739 351.537C658.692 351.537 649.737 342.582 649.737 331.536C649.737 320.49 658.692 311.535 669.739 311.535C680.785 311.535 689.74 320.49 689.74 331.536Z" fill="url(#paint22_linear_11_13)"/>
<path d="M628.827 329.415C628.827 338.285 621.636 345.476 612.765 345.476C603.895 345.476 596.704 338.285 596.704 329.415C596.704 320.544 603.895 313.353 612.765 313.353C621.636 313.353 628.827 320.544 628.827 329.415Z" fill="url(#paint23_linear_11_13)"/>
<path d="M577.006 309.413C577.006 316.61 571.171 322.444 563.974 322.444C556.778 322.444 550.943 316.61 550.943 309.413C550.943 302.216 556.778 296.382 563.974 296.382C571.171 296.382 577.006 302.216 577.006 309.413Z" fill="url(#paint24_linear_11_13)"/>
<path d="M535.791 283.351C535.791 290.548 529.957 296.382 522.76 296.382C515.563 296.382 509.729 290.548 509.729 283.351C509.729 276.154 515.563 270.32 522.76 270.32C529.957 270.32 535.791 276.154 535.791 283.351Z" fill="url(#paint25_linear_11_13)"/>
<defs>
<linearGradient id="paint0_linear_11_13" x1="46.6693" y1="182.739" x2="815.202" y2="182.739" gradientUnits="userSpaceOnUse">
<stop stop-color="#47963D"/>
<stop offset="0.355" stop-color="#F4AE01"/>
<stop offset="0.7" stop-color="#F25700"/>
<stop offset="1" stop-color="#EB0500"/>
</linearGradient>
<linearGradient id="paint1_linear_11_13" x1="46.6693" y1="182.739" x2="815.202" y2="182.739" gradientUnits="userSpaceOnUse">
<stop stop-color="#47963D"/>
<stop offset="0.355" stop-color="#F4AE01"/>
<stop offset="0.7" stop-color="#F25700"/>
<stop offset="1" stop-color="#EB0500"/>
</linearGradient>
<linearGradient id="paint2_linear_11_13" x1="46.6693" y1="182.739" x2="815.202" y2="182.739" gradientUnits="userSpaceOnUse">
<stop stop-color="#47963D"/>
<stop offset="0.355" stop-color="#F4AE01"/>
<stop offset="0.7" stop-color="#F25700"/>
<stop offset="1" stop-color="#EB0500"/>
</linearGradient>
<linearGradient id="paint3_linear_11_13" x1="46.6693" y1="182.739" x2="815.202" y2="182.739" gradientUnits="userSpaceOnUse">
<stop stop-color="#47963D"/>
<stop offset="0.355" stop-color="#F4AE01"/>
<stop offset="0.7" stop-color="#F25700"/>
<stop offset="1" stop-color="#EB0500"/>
</linearGradient>
<linearGradient id="paint4_linear_11_13" x1="46.6693" y1="182.739" x2="815.202" y2="182.739" gradientUnits="userSpaceOnUse">
<stop stop-color="#47963D"/>
<stop offset="0.355" stop-color="#F4AE01"/>
<stop offset="0.7" stop-color="#F25700"/>
<stop offset="1" stop-color="#EB0500"/>
</linearGradient>
<linearGradient id="paint5_linear_11_13" x1="46.6693" y1="182.739" x2="815.202" y2="182.739" gradientUnits="userSpaceOnUse">
<stop stop-color="#47963D"/>
<stop offset="0.355" stop-color="#F4AE01"/>
<stop offset="0.7" stop-color="#F25700"/>
<stop offset="1" stop-color="#EB0500"/>
</linearGradient>
<linearGradient id="paint6_linear_11_13" x1="46.6693" y1="182.739" x2="815.202" y2="182.739" gradientUnits="userSpaceOnUse">
<stop stop-color="#47963D"/>
<stop offset="0.355" stop-color="#F4AE01"/>
<stop offset="0.7" stop-color="#F25700"/>
<stop offset="1" stop-color="#EB0500"/>
</linearGradient>
<linearGradient id="paint7_linear_11_13" x1="46.6693" y1="182.739" x2="815.202" y2="182.739" gradientUnits="userSpaceOnUse">
<stop stop-color="#47963D"/>
<stop offset="0.355" stop-color="#F4AE01"/>
<stop offset="0.7" stop-color="#F25700"/>
<stop offset="1" stop-color="#EB0500"/>
</linearGradient>
<linearGradient id="paint8_linear_11_13" x1="46.6693" y1="182.739" x2="815.202" y2="182.739" gradientUnits="userSpaceOnUse">
<stop stop-color="#47963D"/>
<stop offset="0.355" stop-color="#F4AE01"/>
<stop offset="0.7" stop-color="#F25700"/>
<stop offset="1" stop-color="#EB0500"/>
</linearGradient>
<linearGradient id="paint9_linear_11_13" x1="-0.00012207" y1="183.951" x2="857.023" y2="183.951" gradientUnits="userSpaceOnUse">
<stop stop-color="#47963D"/>
<stop offset="0.215" stop-color="#0C878C"/>
<stop offset="0.485" stop-color="#E10E9D"/>
<stop offset="1" stop-color="#EB0500"/>
</linearGradient>
<linearGradient id="paint10_linear_11_13" x1="-0.00012207" y1="183.951" x2="857.023" y2="183.951" gradientUnits="userSpaceOnUse">
<stop stop-color="#47963D"/>
<stop offset="0.215" stop-color="#0C878C"/>
<stop offset="0.485" stop-color="#E10E9D"/>
<stop offset="1" stop-color="#EB0500"/>
</linearGradient>
<linearGradient id="paint11_linear_11_13" x1="-0.00012207" y1="183.951" x2="857.023" y2="183.951" gradientUnits="userSpaceOnUse">
<stop stop-color="#47963D"/>
<stop offset="0.215" stop-color="#0C878C"/>
<stop offset="0.485" stop-color="#E10E9D"/>
<stop offset="1" stop-color="#EB0500"/>
</linearGradient>
<linearGradient id="paint12_linear_11_13" x1="-0.00012207" y1="183.951" x2="857.023" y2="183.951" gradientUnits="userSpaceOnUse">
<stop stop-color="#47963D"/>
<stop offset="0.215" stop-color="#0C878C"/>
<stop offset="0.485" stop-color="#E10E9D"/>
<stop offset="1" stop-color="#EB0500"/>
</linearGradient>
<linearGradient id="paint13_linear_11_13" x1="-0.00012207" y1="183.951" x2="857.023" y2="183.951" gradientUnits="userSpaceOnUse">
<stop stop-color="#47963D"/>
<stop offset="0.215" stop-color="#0C878C"/>
<stop offset="0.485" stop-color="#E10E9D"/>
<stop offset="1" stop-color="#EB0500"/>
</linearGradient>
<linearGradient id="paint14_linear_11_13" x1="-0.00012207" y1="183.951" x2="857.023" y2="183.951" gradientUnits="userSpaceOnUse">
<stop stop-color="#47963D"/>
<stop offset="0.215" stop-color="#0C878C"/>
<stop offset="0.485" stop-color="#E10E9D"/>
<stop offset="1" stop-color="#EB0500"/>
</linearGradient>
<linearGradient id="paint15_linear_11_13" x1="-0.00012207" y1="183.951" x2="857.023" y2="183.951" gradientUnits="userSpaceOnUse">
<stop stop-color="#47963D"/>
<stop offset="0.215" stop-color="#0C878C"/>
<stop offset="0.485" stop-color="#E10E9D"/>
<stop offset="1" stop-color="#EB0500"/>
</linearGradient>
<linearGradient id="paint16_linear_11_13" x1="-0.00012207" y1="183.951" x2="857.023" y2="183.951" gradientUnits="userSpaceOnUse">
<stop stop-color="#47963D"/>
<stop offset="0.215" stop-color="#0C878C"/>
<stop offset="0.485" stop-color="#E10E9D"/>
<stop offset="1" stop-color="#EB0500"/>
</linearGradient>
<linearGradient id="paint17_linear_11_13" x1="-0.00012207" y1="183.951" x2="857.023" y2="183.951" gradientUnits="userSpaceOnUse">
<stop stop-color="#47963D"/>
<stop offset="0.215" stop-color="#0C878C"/>
<stop offset="0.485" stop-color="#E10E9D"/>
<stop offset="1" stop-color="#EB0500"/>
</linearGradient>
<linearGradient id="paint18_linear_11_13" x1="-0.00012207" y1="183.951" x2="857.023" y2="183.951" gradientUnits="userSpaceOnUse">
<stop stop-color="#47963D"/>
<stop offset="0.215" stop-color="#0C878C"/>
<stop offset="0.485" stop-color="#E10E9D"/>
<stop offset="1" stop-color="#EB0500"/>
</linearGradient>
<linearGradient id="paint19_linear_11_13" x1="-0.00012207" y1="183.951" x2="857.023" y2="183.951" gradientUnits="userSpaceOnUse">
<stop stop-color="#47963D"/>
<stop offset="0.215" stop-color="#0C878C"/>
<stop offset="0.485" stop-color="#E10E9D"/>
<stop offset="1" stop-color="#EB0500"/>
</linearGradient>
<linearGradient id="paint20_linear_11_13" x1="-0.00012207" y1="183.951" x2="857.023" y2="183.951" gradientUnits="userSpaceOnUse">
<stop stop-color="#47963D"/>
<stop offset="0.215" stop-color="#0C878C"/>
<stop offset="0.485" stop-color="#E10E9D"/>
<stop offset="1" stop-color="#EB0500"/>
</linearGradient>
<linearGradient id="paint21_linear_11_13" x1="-0.00012207" y1="183.951" x2="857.023" y2="183.951" gradientUnits="userSpaceOnUse">
<stop stop-color="#47963D"/>
<stop offset="0.215" stop-color="#0C878C"/>
<stop offset="0.485" stop-color="#E10E9D"/>
<stop offset="1" stop-color="#EB0500"/>
</linearGradient>
<linearGradient id="paint22_linear_11_13" x1="-0.00012207" y1="183.951" x2="857.023" y2="183.951" gradientUnits="userSpaceOnUse">
<stop stop-color="#47963D"/>
<stop offset="0.215" stop-color="#0C878C"/>
<stop offset="0.485" stop-color="#E10E9D"/>
<stop offset="1" stop-color="#EB0500"/>
</linearGradient>
<linearGradient id="paint23_linear_11_13" x1="-0.00012207" y1="183.951" x2="857.023" y2="183.951" gradientUnits="userSpaceOnUse">
<stop stop-color="#47963D"/>
<stop offset="0.215" stop-color="#0C878C"/>
<stop offset="0.485" stop-color="#E10E9D"/>
<stop offset="1" stop-color="#EB0500"/>
</linearGradient>
<linearGradient id="paint24_linear_11_13" x1="-0.00012207" y1="183.951" x2="857.023" y2="183.951" gradientUnits="userSpaceOnUse">
<stop stop-color="#47963D"/>
<stop offset="0.215" stop-color="#0C878C"/>
<stop offset="0.485" stop-color="#E10E9D"/>
<stop offset="1" stop-color="#EB0500"/>
</linearGradient>
<linearGradient id="paint25_linear_11_13" x1="-0.00012207" y1="183.951" x2="857.023" y2="183.951" gradientUnits="userSpaceOnUse">
<stop stop-color="#47963D"/>
<stop offset="0.215" stop-color="#0C878C"/>
<stop offset="0.485" stop-color="#E10E9D"/>
<stop offset="1" stop-color="#EB0500"/>
</linearGradient>
</defs>
</svg>
